PathFileType	4	(x/y/z)	S02_P20_T25
DataRate	CameraRate	NumFrames	NumMarkers	Units	OrigDataRate	OrigDataStartFrame	OrigNumFrames
240	240	4	51	mm	240	136	362
Frame#	Time	Sternum			R.Acromium			L.Acromium			Top.Head			R.ASIS			L.ASIS			R.PSIS			L.PSIS			R.Great.Tro			L.Great.Tro			R.Iliac.Crest			L.Iliac.Crest			V.Sacral			R.Thigh.Upper.Post			R.Thigh.Lower.Ant			R.Thigh.Lower.Post			R.Thigh.Upper.Ant			R.Knee.Lat			R.Knee.Med			R.Shank.Upper.Post			R.Shank.Lower.Ant			R.Shank.Lower.Post			R.Shank.Upper.Ant			R.Ankle.Lat			R.Ankle.Med			R.Heel.Upper			R.Heel.Med			R.Heel.Lat			R.Toe.Lat			R.Toe.Med			R.Toe.Tip			L.Thigh.Upper.Post			L.Thigh.Lower.Ant			L.Thigh.Lower.Post			L.Thigh.Upper.Ant			L.Knee.Lat			L.Knee.Med			L.Shank.Upper.Post			L.Shank.Lower.Ant			L.Shank.Lower.Post			L.Shank.Upper.Ant			L.Ankle.Lat			L.Ankle.Med			L.Heel.Upper			L.Heel.Med			L.Heel.Lat			L.Toe.Lat			L.Toe.Med			L.Toe.Tip			Cervical.Spine			Back			
		X1	Y1	Z1	X2	Y2	Z2	X3	Y3	Z3	X4	Y4	Z4	X5	Y5	Z5	X6	Y6	Z6	X7	Y7	Z7	X8	Y8	Z8	X9	Y9	Z9	X10	Y10	Z10	X11	Y11	Z11	X12	Y12	Z12	X13	Y13	Z13	X14	Y14	Z14	X15	Y15	Z15	X16	Y16	Z16	X17	Y17	Z17	X18	Y18	Z18	X19	Y19	Z19	X20	Y20	Z20	X21	Y21	Z21	X22	Y22	Z22	X23	Y23	Z23	X24	Y24	Z24	X25	Y25	Z25	X26	Y26	Z26	X27	Y27	Z27	X28	Y28	Z28	X29	Y29	Z29	X30	Y30	Z30	X31	Y31	Z31	X32	Y32	Z32	X33	Y33	Z33	X34	Y34	Z34	X35	Y35	Z35	X36	Y36	Z36	X37	Y37	Z37	X38	Y38	Z38	X39	Y39	Z39	X40	Y40	Z40	X41	Y41	Z41	X42	Y42	Z42	X43	Y43	Z43	X44	Y44	Z44	X45	Y45	Z45	X46	Y46	Z46	X47	Y47	Z47	X48	Y48	Z48	X49	Y49	Z49	X50	Y50	Z50	X51	Y51	Z51	

136	0.5625	-551.85	1070.5	337.98	-674.64	1308.8	478.44	-658.56	1308.1	184.65	-589.65	1591.7	321.28	-587.6	900.21	428.68	-587.69	880.8	216.9	-803.11	938.41	383.48	-812.14	940.95	310.66	-637.41	797.82	523.01	-732.39	803.1	137.24	-684.83	946.58	493.28	-712.35	934.38	155.86	-831.59	891.03	344.04	-553.87	607.08	495.93	-478.17	557.22	448.81	-536.88	520.88	472.77	-499.86	642.06	469.76	-492.92	457.38	451.58	-513.47	446.53	309.38	-554.59	248.44	438.64	-477.36	173.77	412.02	-543.53	176.45	426.15	-483	241.76	430.1	-525.48	86.864	409.6	-517.98	99.845	324.81	-585.83	70.681	354.85	-570.59	38.859	328.09	-580.79	40.39	391.56	-418.9	41.292	432.64	-386.29	34.712	325.72	-339.2	64.298	380.7	-796.62	588.43	175.89	-736.08	496.06	168.68	-811.08	500.7	196.55	-728.11	589.72	151.5	-774.67	421.09	177.49	-765.01	413.75	315	-943.01	335.08	184.64	-949.18	225.98	196.38	-992.68	280.61	202.22	-901.84	285.42	181.5	-1045.4	172.15	213.2	-1036.5	165.96	294.28	-1113	181.96	247.8	-1119.8	160.34	283.97	-1126.5	154.88	222.62	-1005.9	47.192	195.77	-983.15	52.455	304.78	-927.94	44.907	261.05	-745.03	1372.2	327.86	-814.66	1116.8	324
137	0.56667	-546.02	1070.9	338.32	-668.7	1308.8	479.28	-653.21	1308.4	185.35	-584.15	1592	321.86	-581.65	900.59	429.23	-581.71	881.06	217.65	-797.28	938.65	383.3	-805.83	940.93	310.42	-631.66	798.38	523.49	-725.62	802.3	137.34	-679.08	946.97	493.49	-705.87	934.78	156.03	-825.57	891.14	343.91	-548.58	607.18	496.2	-472.9	557.18	449.18	-531.76	520.97	472.96	-494.38	642.04	470.26	-487.72	457.39	451.49	-507.83	447.16	309.41	-551.68	248.9	438.97	-475.54	173.25	411.79	-541.61	176.76	426.38	-480.21	241.3	429.94	-525.19	86.934	409.56	-517.73	99.814	324.78	-585.81	70.983	354.88	-570.73	39.086	328.12	-580.91	40.658	391.59	-418.95	40.989	432.59	-386.3	34.091	325.61	-339.01	63.428	380.61	-787.75	586.82	175.87	-726.18	495.18	168.21	-801.18	498.88	196.26	-719.3	588.98	151.4	-764.35	420.07	176.69	-754.03	412.25	314.19	-934.15	336.84	184.7	-942.07	227.83	195.97	-984.57	283.28	202.25	-893.98	286.61	180.94	-1039.1	176	213.14	-1029.9	169.45	294.14	-1105.6	188.15	248.01	-1113.2	167.04	284.38	-1120.3	161.68	222.98	-1004.2	49.497	195.82	-980.84	53.962	304.67	-926.69	44.247	260.81	-739.39	1372.5	328.92	-808.91	1117	324.93
138	0.57083	-540.24	1071.4	338.65	-662.79	1309	480.09	-647.87	1308.8	186.05	-578.65	1592.4	322.45	-575.75	901.12	429.78	-575.76	881.42	218.39	-791.48	938.96	383.09	-799.57	941	310.15	-625.97	798.99	523.96	-718.88	801.54	137.47	-673.39	947.47	493.65	-699.44	935.25	156.21	-819.59	891.31	343.75	-543.41	607.29	496.52	-467.8	557.11	449.58	-526.82	521.06	473.19	-489	642	470.78	-482.75	457.35	451.46	-502.36	447.74	309.49	-548.95	249.33	439.3	-473.84	172.74	411.62	-539.82	177.06	426.62	-477.6	240.85	429.86	-524.94	87.008	409.56	-517.54	99.814	324.79	-585.81	71.255	354.93	-570.86	39.309	328.17	-581.02	40.888	391.64	-419.01	40.746	432.58	-386.33	33.602	325.52	-338.86	62.708	380.56	-778.77	585.25	175.78	-716.13	494.39	167.68	-791.12	497.1	195.9	-710.37	588.3	151.25	-753.84	419.1	175.82	-742.79	410.8	313.31	-924.96	338.67	184.76	-934.58	229.74	195.57	-976.15	286.03	202.31	-885.87	287.89	180.35	-1032.4	179.94	213.09	-1022.9	173	294.02	-1097.7	194.44	248.28	-1106.1	173.86	284.85	-1113.6	168.65	223.39	-1002.2	52.024	195.88	-978.21	55.62	304.54	-925.22	43.574	260.5	-733.75	1372.8	329.95	-803.17	1117.4	325.82
139	0.575	-534.49	1072	338.98	-656.9	1309.3	480.87	-642.54	1309.2	186.77	-573.16	1592.9	323.04	-569.91	901.79	430.33	-569.88	881.85	219.14	-785.7	939.33	382.87	-793.36	941.14	309.88	-620.33	799.65	524.44	-712.16	800.83	137.63	-667.78	948.07	493.77	-693.08	935.78	156.42	-813.65	891.55	343.58	-538.37	607.4	496.87	-462.86	556.98	450	-522.06	521.14	473.45	-483.74	641.92	471.31	-478.07	457.25	451.51	-497.1	448.25	309.62	-546.4	249.72	439.64	-472.28	172.26	411.51	-538.16	177.33	426.87	-475.16	240.4	429.84	-524.73	87.083	409.58	-517.37	99.838	324.83	-585.83	71.496	355.01	-570.97	39.524	328.22	-581.13	41.081	391.69	-419.07	40.552	432.58	-386.36	33.228	325.47	-338.75	62.123	380.54	-769.68	583.73	175.63	-705.94	493.67	167.09	-780.93	495.36	195.45	-701.35	587.71	151.04	-743.16	418.19	174.91	-731.28	409.42	312.37	-915.47	340.59	184.8	-926.7	231.72	195.2	-967.41	288.84	202.39	-877.53	289.27	179.75	-1025.3	183.94	213.07	-1015.6	176.59	293.92	-1089.4	200.8	248.6	-1098.5	180.76	285.36	-1106.4	175.73	223.84	-999.99	54.77	195.95	-975.26	57.426	304.39	-923.51	42.901	260.14	-728.11	1373.2	330.96	-797.44	1117.7	326.68
